<?xml version="1.0" encoding="UTF-8"?>
<svg id="Layer_2" data-name="Layer 2" xmlns="http://www.w3.org/2000/svg" viewBox="0 0 888.66 888">
  <defs>
    <style>
      .cls-1 {
        fill: #242424;
      }

      .cls-2 {
        fill: #f3f3f3;
      }
    </style>
  </defs>
  <g id="Layer_1-2" data-name="Layer 1">
    <g>
      <path class="cls-1" d="M398.7,887.94l-147.97.06.23-28.97-14.49.32h-46.36c-3.19,0-2.12-8.89-2.07-11.45.15-6.72.37-13.23-.64-20.09l-22.83.27c-3.1.04-5.93-.07-9.24-.67l-.36-31.18c-9.3-.91-17.93-.34-26.9-.2-1.47.02-2.82-.16-3.72-1.08-.82-.85-1.07-2.22-1.06-3.62l.21-16.77-27.02-.06-.09-20.18-21.74-.12-.1-28.58-28.52-.06-.07-26.01-16.8-.08-.08-5.99c-.07-5.06-.99-9.86-.76-15.01.57-12.42.69-24.47.29-36.93-.42-13.24.85-22.81-.04-35.49-4.72-.91-9.21-.69-13.96-.49-4.84-.04-9.66.75-14.61-.23V253.15c9.51.26,18.72.95,28.08-.08,1.3-8.64.77-17.11.4-25.83-.08-1.93-.29-3.69.8-5.52l35.81-.09c9.6-.02,18.84.24,28.51-.41l-.02-94.2,61.97-.06v-32.82c11.24.39,21.95,1.07,33.05-.27l30.09.57.18-31.63h31.89s.07-29.01.07-29.01c-.03-1.56,1.21-2.01,2.71-2.01h62.12s.23-28.45.23-28.45c.01-1.35-.15-2.79,1.37-3.18l.92-.16,246.5.02c.76,0,1.05.29,1.05.87v31.42c-.01.79.34,1.12,1.19,1.12l67,.04c-.45,7.18-.08,13.6.37,20.33l.54,8.03v32.37c4.95.24,9.26.28,14.16.28l108.59.05c.8,0,.8,1.09.8,1.77v28.48c.01.89.5,1.04,1.37,1.05l28.99.44c1.47.02,2.61.19,3.58,1.15.86.85,1.37,2.11,1.18,3.65-1.31,10.52.25,24.59-.29,37.19-.3,7-.52,13.72.27,20.56,1.49.88,3.06,1.14,4.78,1.12l26.44-.22c.95,5.77.61,11.27.55,17.01-.2,5.01-.36,9.77.27,14.9l31.16.15.1,66.33.23,12.6c.1,5.47-.42,10.73-.05,16.27l27.75.08c1.28,0,3.51.47,3.52,2.19l.35,65.35-.11,35.36-.17,43.49.32,15.68v43.94s.04,50.44.04,50.44l-.14,23.5c-.01,2.44-.17,4.52-.2,7.36-1.95-.32-3.63,1.05-5.56,1.07l-25.55.17c-.48,0-.84.07-.88.28-.07.32-.19.69-.12,1.12.85,5.21.32,10.23.39,15.52l.41,29.44c.07,4.96.14,9.61-.28,14.5-.07.77-.85.84-1.52.84h-31.47c-.37.13-.98.19-.98.78l.03,95.86-63.71.41,1.38,27.84c.29,1.07.39,2.04.12,3.09.32,1.39-9.27.36-10.97.4l-19.85.52c-1.36.04-1.23,1.16-1.21,2.21l.26,20.99c.08,6.62,1.15,8.03-1.5,8.06l-27,.3c-.62,0-2.02-.2-2.01.61l.1,17.53.12,11.52c0,.62-.01,1.22-.28,1.57-.36.47-1.11.45-1.99.39l-61.33.06c-1.85,9.29-1.32,18.53-.61,28.4l-235.6.07ZM282.82,96.74l-30.06.04.04,30.07,30.06-.04-.04-30.07ZM314.81,96.79h-29.12v30.03h29.12v-30.03ZM219.04,158.3v-28s-29.01,0-29.01,0l.02,27.34c1.36.96,2.86,1.22,4.49,1.18l24.5-.52ZM250.01,130.28h-27.99v28.54h27.99v-28.54ZM282.82,130.28h-29.81v28.59h29.81v-28.59ZM314.81,130.32h-29.12v28.37h29.12v-28.37ZM346.5,130.28l-28.85.02.02,28.59,28.85-.02-.02-28.59ZM377.78,130.32h-28.12v28.39h28.12v-28.39ZM409.76,130.32h-29.12v28.56h29.12v-28.56ZM156.13,161.91h-31s0,28.23,0,28.23h31s0-28.23,0-28.23ZM157.59,161.91v28.23h29.45v-28.23h-29.45ZM219.03,161.91h-28.99v28.23h28.99v-28.23ZM250.01,161.91h-27.99v28.23h27.99v-28.23ZM282.82,161.91h-29.81v28.23h29.81v-28.23ZM314.81,161.91h-29.12v28.23h29.12v-28.23ZM346.66,184.04l-.32-22.1-28.66.02.09,28.17h27.96c.71-2.09.72-4.01.92-6.09ZM377.54,161.91h-27.88v28.23h27.88v-28.23ZM409.76,161.92h-29.12v28.22h29.12v-28.22ZM442.51,161.91h-29.88v28.23h29.88v-28.23ZM156.06,192.9h-30.43v28.72h30.43v-28.72ZM187.04,192.87h-29.99v28.75h29.99v-28.75ZM219.03,192.89h-28.99v28.73h28.99v-28.73ZM377.68,221.62l-.12-17.41c.27-3.8.32-7.41.13-11.28l-27.98.07v27.76c1.97-.08,3.38.11,4.85.87h23.12ZM409.76,192.9h-29.12v28.72h29.12v-28.72ZM442.15,192.89h-29.52v28.73h29.52v-28.73ZM473.73,192.89h-28.12v28.73h28.12v-28.73ZM124.27,224.38h-29.49s0,29.23,0,29.23h29.49s0-29.23,0-29.23ZM155.86,224.39h-30.16v29.22h30.16v-29.22ZM157.59,224.38v29.23h29.45v-29.23h-29.45ZM282.82,224.38h-29.81v29.23h29.81v-29.23ZM314.81,224.39h-29.12v29.22h29.12v-29.22ZM409.76,224.39h-29.12v29.22h29.12v-29.22ZM442.2,224.39h-29.57v29.22h29.57v-29.22ZM473.4,224.38h-27.79v29.23h27.79v-29.23ZM505.52,224.38h-28.92v29.23h28.92v-29.23ZM124.23,256.36h-29.45s0,28.38,0,28.38h29.45s0-28.38,0-28.38ZM125.87,256.36v28.38h30.02v-28.38h-30.02ZM187.06,284.7l-.06-28.33-28.97.06-.63,28.27h29.66ZM282.82,256.36h-29.81v28.38h29.81v-28.38ZM314.81,256.37h-29.12v28.37h29.12v-28.37ZM409.76,256.37h-29.12v28.37h29.12v-28.37ZM441.95,256.36h-29.32v28.38h29.32v-28.38ZM473.4,256.36h-27.79v28.38h27.79v-28.38ZM505.07,285.67l-.05-29.29-28.39.03-.03,28.29,26.75.03c.65.31.74,1.19,1.72.95ZM89.81,316.61c.86-.09,2.09-.22,2.09-1.01l-.03-27.83-28.68-.09-1.12,19c.14,3.4-.26,6.62.58,9.88l27.17.05ZM124.13,287.7h-29.34v28.89h29.34v-28.89ZM155.67,287.7l-30.05.04.04,28.89,30.05-.04-.04-28.89ZM157.28,287.87v28.73h29.76v-28.73h-29.76ZM409.76,287.74h-29.12v28.86h29.12v-28.86ZM442.1,287.7l-29.51.04.04,28.89,29.51-.04-.04-28.89ZM473.4,287.7h-27.79v28.89h27.79v-28.89ZM505.26,287.73h-28.66v28.86h28.66v-28.86ZM219.03,319.37h-28.99v28.99h28.99v-28.99ZM377.78,319.37h-28.12v29.15h28.12v-29.15ZM442.04,319.46l-29.54.14.14,28.88,29.54-.14-.14-28.88ZM473.4,319.48h-27.79v28.89h27.79v-28.89ZM505.39,319.48h-28.79v29.03h28.79v-29.03ZM91.92,319.66h-30.03v28.69h30.03v-28.69ZM124.24,319.61l-29.51.06.06,28.74,29.51-.06-.06-28.74ZM155.85,319.62l-30.25.05.05,28.73,30.25-.05-.05-28.73ZM187.04,319.63h-29.36v28.72h29.36v-28.72ZM409.67,319.64h-29.02v28.71h29.02v-28.71ZM91.94,379.5l-.05-28.22h-29.48c-.68,9.94-.78,19.72.26,29.85l23.91-.52c1.92-.04,3.94.15,5.36-1.12ZM124.31,351.24h-29.53s0,29.54,0,29.54h29.53s0-29.54,0-29.54ZM155.85,350.99l-30.03.26.26,29.86,30.03-.26-.26-29.86ZM157.3,351.17v29.54h29.74v-29.54h-29.74ZM253.01,351.24v29.42s29.81,0,29.81,0v-29.42s-29.81,0-29.81,0ZM314.81,351.25h-29.12v28.86h29.12v-28.86ZM409.76,351.24h-29.12v29.45h29.12v-29.45ZM441.84,350.94l-29.54.33.34,29.83,29.54-.33-.34-29.83ZM473.59,351.25h-27.97v29.84h27.97v-29.84ZM505.39,351.25h-28.79v29.45h28.79v-29.45ZM124.28,383.88h-29.5v28.69h29.5v-28.69ZM125.96,383.88v28.69h29.73v-28.69h-29.73ZM187.04,383.88h-29.68v28.69h29.68v-28.69ZM282.82,383.88h-29.81v28.69h29.81v-28.69ZM314.81,383.88h-29.12v28.68h29.12v-28.68ZM409.76,383.88h-29.12v28.68h29.12v-28.68ZM442.48,383.88h-29.85v28.69h29.85v-28.69ZM473.4,383.88h-27.79v28.69h27.79v-28.69ZM505.14,383.88h-28.56s0,28.7,0,28.7h28.56s0-28.7,0-28.7ZM124.16,415.36h-29.37v28.69h29.37v-28.69ZM155.59,415.36h-29.51v28.69h29.51v-28.69ZM157.59,415.36v28.69h29.45v-28.69h-29.45ZM282.82,415.36h-29.81v28.69h29.81v-28.69ZM315.22,415.06h-29.72v30.09h29.72v-30.09ZM409.67,415.36h-29.02v28.69h29.02v-28.69ZM442.46,415.36h-29.83v28.69h29.83v-28.69ZM473.47,415.36h-27.86v28.69h27.86v-28.69ZM505.56,415.36h-28.96v28.69h28.96v-28.69ZM125.37,446.84v28.69h30.69v-28.69h-30.69ZM157.76,475.55l29.29-.1-.05-28.58-29.43.23c-.9,2.6-.16,5.08-.12,7.72l.31,20.73ZM219.03,446.84h-28.99v28.69h28.99v-28.69ZM377.78,446.85h-28.12v28.68h28.12v-28.68ZM409.76,446.84h-29.12v28.69h29.12v-28.69ZM442.42,446.84h-29.79v28.69h29.79v-28.69ZM473.73,446.85h-28.12v28.68h28.12v-28.68ZM125.07,478.3l-.02,28.71,31,.03.02-28.71-31-.03ZM157.59,478.34v28.68h29.45v-28.68h-29.45ZM219.03,478.33h-28.99v28.69h28.99v-28.69ZM250.01,478.33h-27.99v28.69h27.99v-28.69ZM282.82,478.34h-29.81v28.68h29.81v-28.68ZM314.81,478.33h-29.12v28.69h29.12v-28.69ZM346.79,478.34h-29.12v28.68h29.12v-28.68ZM377.78,478.34h-28.12v28.68h28.12v-28.68ZM409.76,478.33h-29.12v28.69h29.12v-28.69ZM442.6,478.33h-29.97v28.69h29.97v-28.69ZM219.03,509.81h-28.99v30.17h28.99v-30.17ZM250.01,509.81h-27.99v30.13h27.99v-30.13ZM282.82,509.82h-29.81v30.29h29.81v-30.29ZM314.81,509.82h-29.12v30.12h29.12v-30.12ZM346.79,509.82h-29.12v30.15h29.12v-30.15ZM377.75,540.07l-.27-29.47-27.83-.72.11,30.06,27.98.14ZM409.76,509.82h-29.12v30.6h29.12v-30.6Z"/>
      <g>
        <rect class="cls-2" x="253.01" y="509.82" width="29.81" height="30.29"/>
        <rect class="cls-2" x="252.78" y="96.76" width="30.06" height="30.07" transform="translate(-.14 .35) rotate(-.07)"/>
        <rect class="cls-2" x="317.68" y="509.82" width="29.12" height="30.15"/>
        <rect class="cls-2" x="125.7" y="224.39" width="30.16" height="29.22"/>
        <rect class="cls-2" x="285.69" y="509.82" width="29.12" height="30.12"/>
        <rect class="cls-2" x="126.2" y="477.17" width="28.71" height="31" transform="translate(-352.24 632.82) rotate(-89.95)"/>
        <rect class="cls-2" x="380.64" y="509.82" width="29.12" height="30.6"/>
        <path class="cls-2" d="M91.94,379.5c-1.42,1.26-3.44,1.07-5.36,1.12l-23.91.52c-1.04-10.13-.94-19.91-.26-29.85h29.48s.05,28.22.05,28.22Z"/>
        <rect class="cls-2" x="125.37" y="446.84" width="30.69" height="28.69"/>
        <rect class="cls-2" x="125.95" y="351.12" width="30.03" height="29.86" transform="translate(-3.15 1.23) rotate(-.49)"/>
        <rect class="cls-2" x="285.69" y="96.79" width="29.12" height="30.03"/>
        <rect class="cls-2" x="125.63" y="192.9" width="30.43" height="28.72"/>
        <rect class="cls-2" x="412.63" y="478.33" width="29.97" height="28.69"/>
        <rect class="cls-2" x="412.47" y="351.1" width="29.54" height="29.83" transform="translate(-4.09 4.83) rotate(-.64)"/>
        <rect class="cls-2" x="94.78" y="351.24" width="29.53" height="29.53"/>
        <rect class="cls-2" x="125.12" y="161.91" width="31" height="28.23"/>
        <rect class="cls-2" x="190.04" y="509.81" width="28.99" height="30.17"/>
        <rect class="cls-2" x="412.63" y="224.39" width="29.57" height="29.22"/>
        <rect class="cls-2" x="94.78" y="224.38" width="29.49" height="29.23"/>
        <rect class="cls-2" x="157.3" y="351.17" width="29.74" height="29.54"/>
        <rect class="cls-2" x="412.63" y="446.84" width="29.79" height="28.69"/>
        <rect class="cls-2" x="380.64" y="224.39" width="29.12" height="29.22"/>
        <rect class="cls-2" x="253.01" y="478.34" width="29.81" height="28.68"/>
        <rect class="cls-2" x="125.64" y="287.72" width="30.05" height="28.89" transform="translate(-.38 .18) rotate(-.07)"/>
        <rect class="cls-2" x="380.64" y="351.24" width="29.12" height="29.45"/>
        <rect class="cls-2" x="157.59" y="224.38" width="29.45" height="29.23"/>
        <rect class="cls-2" x="412.63" y="192.89" width="29.52" height="28.73"/>
        <rect class="cls-2" x="125.63" y="319.64" width="30.25" height="28.73" transform="translate(-.53 .22) rotate(-.09)"/>
        <rect class="cls-2" x="412.63" y="383.88" width="29.85" height="28.69"/>
        <rect class="cls-2" x="412.63" y="415.36" width="29.83" height="28.69"/>
        <rect class="cls-2" x="61.89" y="319.66" width="30.03" height="28.69"/>
        <rect class="cls-2" x="157.06" y="192.87" width="29.99" height="28.75"/>
        <rect class="cls-2" x="94.79" y="383.88" width="29.5" height="28.69"/>
        <path class="cls-2" d="M89.81,316.61l-27.17-.05c-.84-3.26-.44-6.48-.58-9.88l1.12-19,28.68.09.03,27.83c0,.79-1.23.92-2.09,1.01Z"/>
        <rect class="cls-2" x="125.87" y="256.36" width="30.02" height="28.38"/>
        <rect class="cls-2" x="412.61" y="287.72" width="29.51" height="28.89" transform="translate(-.38 .54) rotate(-.07)"/>
        <rect class="cls-2" x="157.28" y="287.87" width="29.76" height="28.73"/>
        <rect class="cls-2" x="157.36" y="383.88" width="29.68" height="28.69"/>
        <rect class="cls-2" x="380.64" y="287.74" width="29.12" height="28.86"/>
        <rect class="cls-2" x="317.68" y="478.34" width="29.12" height="28.68"/>
        <rect class="cls-2" x="157.59" y="415.36" width="29.45" height="28.69"/>
        <rect class="cls-2" x="126.07" y="415.36" width="29.51" height="28.69"/>
        <rect class="cls-2" x="380.64" y="383.88" width="29.12" height="28.68"/>
        <rect class="cls-2" x="125.96" y="383.88" width="29.73" height="28.69"/>
        <rect class="cls-2" x="476.6" y="351.25" width="28.79" height="29.45"/>
        <rect class="cls-2" x="285.69" y="478.33" width="29.12" height="28.69"/>
        <path class="cls-2" d="M157.76,475.55l-.31-20.73c-.04-2.64-.77-5.12.12-7.72l29.43-.23.05,28.58-29.29.1Z"/>
        <rect class="cls-2" x="380.64" y="415.36" width="29.02" height="28.69"/>
        <rect class="cls-2" x="380.64" y="478.33" width="29.12" height="28.69"/>
        <rect class="cls-2" x="94.79" y="415.36" width="29.37" height="28.69"/>
        <rect class="cls-2" x="380.64" y="192.9" width="29.12" height="28.72"/>
        <rect class="cls-2" x="94.79" y="287.7" width="29.34" height="28.89"/>
        <rect class="cls-2" x="253.01" y="130.28" width="29.81" height="28.59"/>
        <rect class="cls-2" x="157.59" y="478.34" width="29.45" height="28.68"/>
        <rect class="cls-2" x="476.6" y="224.38" width="28.92" height="29.23"/>
        <rect class="cls-2" x="253.01" y="161.91" width="29.81" height="28.23"/>
        <rect class="cls-2" x="380.64" y="446.84" width="29.12" height="28.69"/>
        <rect class="cls-2" x="222.03" y="509.81" width="27.99" height="30.13"/>
        <rect class="cls-2" x="412.63" y="161.91" width="29.88" height="28.23"/>
        <polygon class="cls-2" points="377.75 540.07 349.77 539.93 349.66 509.87 377.48 510.6 377.75 540.07"/>
        <rect class="cls-2" x="412.57" y="319.53" width="29.54" height="28.88" transform="translate(-1.57 2.02) rotate(-.27)"/>
        <rect class="cls-2" x="476.6" y="319.48" width="28.79" height="29.03"/>
        <rect class="cls-2" x="94.76" y="319.64" width="29.51" height="28.74" transform="translate(-.73 .24) rotate(-.13)"/>
        <rect class="cls-2" x="476.6" y="287.73" width="28.66" height="28.86"/>
        <rect class="cls-2" x="190.04" y="446.84" width="28.99" height="28.69"/>
        <rect class="cls-2" x="190.04" y="478.33" width="28.99" height="28.69"/>
        <rect class="cls-2" x="190.04" y="192.89" width="28.99" height="28.73"/>
        <rect class="cls-2" x="380.64" y="319.64" width="29.02" height="28.71"/>
        <rect class="cls-2" x="476.59" y="383.88" width="28.56" height="28.69"/>
        <rect class="cls-2" x="94.78" y="256.37" width="29.45" height="28.38"/>
        <rect class="cls-2" x="190.04" y="319.37" width="28.99" height="28.99"/>
        <g>
          <g>
            <rect class="cls-2" x="285.5" y="415.06" width="29.72" height="30.09"/>
            <rect class="cls-2" x="253.21" y="351.04" width="29.42" height="29.82" transform="translate(-98.11 633.76) rotate(-89.98)"/>
            <rect class="cls-2" x="253.01" y="383.88" width="29.81" height="28.69"/>
            <rect class="cls-2" x="253.01" y="415.36" width="29.81" height="28.69"/>
            <rect class="cls-2" x="285.69" y="351.25" width="29.12" height="28.86"/>
            <rect class="cls-2" x="285.69" y="383.88" width="29.12" height="28.68"/>
          </g>
          <g>
            <rect class="cls-2" x="253.01" y="224.38" width="29.81" height="29.23"/>
            <rect class="cls-2" x="285.69" y="224.39" width="29.12" height="29.22"/>
            <rect class="cls-2" x="253.01" y="256.36" width="29.81" height="28.38"/>
            <rect class="cls-2" x="285.69" y="256.37" width="29.12" height="28.37"/>
          </g>
        </g>
        <rect class="cls-2" x="285.69" y="130.32" width="29.12" height="28.37"/>
        <rect class="cls-2" x="412.63" y="256.36" width="29.32" height="28.38"/>
        <rect class="cls-2" x="380.64" y="256.37" width="29.12" height="28.37"/>
        <rect class="cls-2" x="157.69" y="319.63" width="29.36" height="28.72"/>
        <rect class="cls-2" x="157.59" y="161.91" width="29.45" height="28.23"/>
        <rect class="cls-2" x="380.64" y="161.92" width="29.12" height="28.22"/>
        <rect class="cls-2" x="476.6" y="415.36" width="28.96" height="28.69"/>
        <rect class="cls-2" x="285.69" y="161.91" width="29.12" height="28.23"/>
        <polygon class="cls-2" points="187.06 284.7 157.41 284.69 158.03 256.42 187.01 256.37 187.06 284.7"/>
        <path class="cls-2" d="M346.66,184.04c-.2,2.07-.22,4-.92,6.09h-27.96s-.09-28.17-.09-28.17l28.66-.02.32,22.1Z"/>
        <rect class="cls-2" x="380.64" y="130.32" width="29.12" height="28.56"/>
        <rect class="cls-2" x="349.66" y="319.37" width="28.12" height="29.15"/>
        <rect class="cls-2" x="445.61" y="351.25" width="27.97" height="29.84"/>
        <path class="cls-2" d="M505.07,285.67c-.98.24-1.07-.64-1.72-.95l-26.75-.03.03-28.29,28.39-.03.05,29.29Z"/>
        <rect class="cls-2" x="349.66" y="478.34" width="28.12" height="28.68"/>
        <rect class="cls-2" x="317.66" y="130.29" width="28.85" height="28.59"/>
        <rect class="cls-2" x="190.04" y="161.91" width="28.99" height="28.23"/>
        <rect class="cls-2" x="445.61" y="446.85" width="28.12" height="28.68"/>
        <rect class="cls-2" x="445.61" y="224.38" width="27.79" height="29.23"/>
        <rect class="cls-2" x="445.61" y="192.89" width="28.12" height="28.73"/>
        <rect class="cls-2" x="349.66" y="446.85" width="28.12" height="28.68"/>
        <path class="cls-2" d="M219.04,158.3l-24.5.52c-1.63.03-3.13-.22-4.49-1.18l-.02-27.34h28.99s.01,28,.01,28Z"/>
        <path class="cls-2" d="M377.68,221.62h-23.12c-1.47-.75-2.88-.94-4.86-.86v-27.76s27.99-.07,27.99-.07c.19,3.87.14,7.47-.13,11.28l.12,17.41Z"/>
        <rect class="cls-2" x="445.61" y="287.7" width="27.79" height="28.89"/>
        <rect class="cls-2" x="222.03" y="478.33" width="27.99" height="28.69"/>
        <rect class="cls-2" x="445.61" y="415.36" width="27.86" height="28.69"/>
        <rect class="cls-2" x="445.61" y="383.88" width="27.79" height="28.69"/>
        <rect class="cls-2" x="349.66" y="130.32" width="28.12" height="28.39"/>
        <rect class="cls-2" x="445.61" y="319.48" width="27.79" height="28.89"/>
        <rect class="cls-2" x="445.61" y="256.36" width="27.79" height="28.38"/>
        <rect class="cls-2" x="222.03" y="161.91" width="27.99" height="28.23"/>
        <rect class="cls-2" x="222.03" y="130.28" width="27.99" height="28.54"/>
        <rect class="cls-2" x="349.66" y="161.91" width="27.88" height="28.23"/>
      </g>
    </g>
  </g>
</svg>